states
version=1
nRows=6
nColumns=105
inDegrees=no
endheader
time	gnd_pelvis/pelvis_tilt/value	gnd_pelvis/pelvis_tilt/speed	gnd_pelvis/pelvis_list/value	gnd_pelvis/pelvis_list/speed	gnd_pelvis/pelvis_rot/value	gnd_pelvis/pelvis_rot/speed	gnd_pelvis/pelvis_tx/value	gnd_pelvis/pelvis_tx/speed	gnd_pelvis/pelvis_ty/value	gnd_pelvis/pelvis_ty/speed	gnd_pelvis/pelvis_tz/value	gnd_pelvis/pelvis_tz/speed	hip_r/hip_flex_r/value	hip_r/hip_flex_r/speed	hip_r/hip_add_r/value	hip_r/hip_add_r/speed	hip_r/hip_rot_r/value	hip_r/hip_rot_r/speed	pf_r/pf_flex_r/value	pf_r/pf_flex_r/speed	pf_r/pf_rot_r/value	pf_r/pf_rot_r/speed	pf_r/pf_tilt_r/value	pf_r/pf_tilt_r/speed	pf_r/pf_tx_r/value	pf_r/pf_tx_r/speed	pf_r/pf_ty_r/value	pf_r/pf_ty_r/speed	pf_r/pf_tz_r/value	pf_r/pf_tz_r/speed	knee_r/knee_flex_r/value	knee_r/knee_flex_r/speed	knee_r/knee_add_r/value	knee_r/knee_add_r/speed	knee_r/knee_rot_r/value	knee_r/knee_rot_r/speed	knee_r/knee_tx_r/value	knee_r/knee_tx_r/speed	knee_r/knee_ty_r/value	knee_r/knee_ty_r/speed	knee_r/knee_tz_r/value	knee_r/knee_tz_r/speed	ankle_r/ankle_flex_r/value	ankle_r/ankle_flex_r/speed	subtalar_r/subt_angle_r/value	subtalar_r/subt_angle_r/speed	mtp_r/mtp_angle_r/value	mtp_r/mtp_angle_r/speed	hip_l/hip_flex_l/value	hip_l/hip_flex_l/speed	hip_l/hip_add_l/value	hip_l/hip_add_l/speed	hip_l/hip_rot_l/value	hip_l/hip_rot_l/speed	pf_l/pf_l_r3/value	pf_l/pf_l_r3/speed	pf_l/pf_l_tx/value	pf_l/pf_l_tx/speed	pf_l/pf_l_ty/value	pf_l/pf_l_ty/speed	knee_l/knee_flex_l/value	knee_l/knee_flex_l/speed	ankle_l/ankle_flex_l/value	ankle_l/ankle_flex_l/speed	subtalar_l/subt_angle_l/value	subtalar_l/subt_angle_l/speed	mtp_l/mtp_angle_l/value	mtp_l/mtp_angle_l/speed	pelvis_torso/lumbar_ext/value	pelvis_torso/lumbar_ext/speed	pelvis_torso/lumbar_latbend/value	pelvis_torso/lumbar_latbend/speed	pelvis_torso/lumbar_rot/value	pelvis_torso/lumbar_rot/speed	torso_neckhead/neck_ext/value	torso_neckhead/neck_ext/speed	torso_neckhead/neck_latbend/value	torso_neckhead/neck_latbend/speed	torso_neckhead/neck_rot/value	torso_neckhead/neck_rot/speed	acromial_r/arm_add_r/value	acromial_r/arm_add_r/speed	acromial_r/arm_flex_r/value	acromial_r/arm_flex_r/speed	acromial_r/arm_rot_r/value	acromial_r/arm_rot_r/speed	elbow_r/elbow_flex_r/value	elbow_r/elbow_flex_r/speed	radioulnar_r/pro_sup_r/value	radioulnar_r/pro_sup_r/speed	radius_hand_r/wrist_flex_r/value	radius_hand_r/wrist_flex_r/speed	acromial_l/arm_add_l/value	acromial_l/arm_add_l/speed	acromial_l/arm_flex_l/value	acromial_l/arm_flex_l/speed	acromial_l/arm_rot_l/value	acromial_l/arm_rot_l/speed	elbow_l/elbow_flex_l/value	elbow_l/elbow_flex_l/speed	radioulnar_l/pro_sup_l/value	radioulnar_l/pro_sup_l/speed	radius_hand_l/wrist_flex_l/value	radius_hand_l/wrist_flex_l/speed
      1.25000000	      0.00000000	      0.00000000	     -0.00000000	     -0.00000000	      0.00000000	      0.00000000	     -0.00000000	     -0.00000000	      0.96900000	     -0.00000000	     -0.00000000	     -0.00000000	     -0.00000000	     -0.00000000	      0.00000000	      0.00000000	     -0.00000000	     -0.00000000	      0.40645881	      0.77340734	      0.05259185	      0.09027633	      0.01368013	     -0.10336466	      0.04191613	     -0.02313751	     -0.02079794	     -0.02082803	      0.00598648	     -0.00042996	      0.62401111	      0.74462029	      0.05651788	      0.08051427	      0.02156533	     -0.10863184	      0.00008857	      0.00094114	      0.00158454	      0.00041655	     -0.00073386	      0.00144466	      0.00000000	      0.00000000	     -0.00000000	     -0.00000000	      0.00000000	     -0.00000000	     -0.00000000	     -0.00000000	      0.00000000	      0.00000000	     -0.00000000	     -0.00000000	      0.00113686	      0.00000000	      0.04435000	     -0.00000000	     -0.41871200	      0.00000000	      0.00000000	     -0.00000000	      0.00000000	      0.00000000	      0.00000000	      0.00000000	     -0.00000000	     -0.00000000	     -0.00000000	     -0.00000000	      0.00000000	      0.00000000	      0.00000000	      0.00000000	     -0.00000000	     -0.00000000	     -0.00000000	     -0.00000000	     -0.00000000	     -0.00000000	     -0.00000000	     -0.00000000	     -0.00000000	     -0.00000000	     -0.00000000	     -0.00000000	     -0.00000000	      0.00000000	      1.04719755	      0.00000000	      0.00000000	      0.00000000	      0.00000000	      0.00000000	      0.00000000	      0.00000000	      0.00000000	      0.00000000	     -0.00000000	     -0.00000000	      1.04719755	      0.00000000	      0.00000000	      0.00000000
      1.26000000	      0.00000000	      0.00000000	     -0.00000000	     -0.00000000	      0.00000000	      0.00000000	     -0.00000000	     -0.00000000	      0.96900000	     -0.00000000	     -0.00000000	     -0.00000000	     -0.00000000	     -0.00000000	      0.00000000	      0.00000000	     -0.00000000	     -0.00000000	      0.41413785	      0.76247029	      0.05346088	      0.08319462	      0.01264644	     -0.10295912	      0.04169001	     -0.02211341	     -0.02099778	     -0.01916310	      0.00598430	     -0.00013302	      0.63126151	      0.70538660	      0.05729747	      0.07536375	      0.02046572	     -0.11118061	      0.00009831	      0.00099594	      0.00158776	      0.00022092	     -0.00071924	      0.00141711	      0.00000000	      0.00000000	     -0.00000000	     -0.00000000	      0.00000000	     -0.00000000	     -0.00000000	     -0.00000000	      0.00000000	      0.00000000	     -0.00000000	     -0.00000000	      0.00113686	      0.00000000	      0.04435000	     -0.00000000	     -0.41871200	      0.00000000	      0.00000000	     -0.00000000	      0.00000000	      0.00000000	      0.00000000	      0.00000000	     -0.00000000	     -0.00000000	     -0.00000000	     -0.00000000	      0.00000000	      0.00000000	      0.00000000	      0.00000000	     -0.00000000	     -0.00000000	     -0.00000000	     -0.00000000	     -0.00000000	     -0.00000000	     -0.00000000	     -0.00000000	     -0.00000000	     -0.00000000	     -0.00000000	     -0.00000000	     -0.00000000	      0.00000000	      1.04719755	      0.00000000	      0.00000000	      0.00000000	      0.00000000	      0.00000000	      0.00000000	      0.00000000	      0.00000000	      0.00000000	     -0.00000000	     -0.00000000	      1.04719755	      0.00000000	      0.00000000	      0.00000000
      1.27000000	      0.00000000	      0.00000000	     -0.00000000	     -0.00000000	      0.00000000	      0.00000000	     -0.00000000	     -0.00000000	      0.96900000	     -0.00000000	     -0.00000000	     -0.00000000	     -0.00000000	     -0.00000000	      0.00000000	      0.00000000	     -0.00000000	     -0.00000000	      0.42169322	      0.74897683	      0.05425849	      0.07668855	      0.01161905	     -0.10258000	      0.04147386	     -0.02112741	     -0.02118095	     -0.01739676	      0.00598086	     -0.00061681	      0.63811737	      0.66572774	      0.05802830	      0.07102313	      0.01934177	     -0.11356338	      0.00010806	      0.00091235	      0.00158961	      0.00014838	     -0.00070552	      0.00135381	      0.00000000	      0.00000000	     -0.00000000	     -0.00000000	      0.00000000	     -0.00000000	     -0.00000000	     -0.00000000	      0.00000000	      0.00000000	     -0.00000000	     -0.00000000	      0.00113686	      0.00000000	      0.04435000	     -0.00000000	     -0.41871200	      0.00000000	      0.00000000	     -0.00000000	      0.00000000	      0.00000000	      0.00000000	      0.00000000	     -0.00000000	     -0.00000000	     -0.00000000	     -0.00000000	      0.00000000	      0.00000000	      0.00000000	      0.00000000	     -0.00000000	     -0.00000000	     -0.00000000	     -0.00000000	     -0.00000000	     -0.00000000	     -0.00000000	     -0.00000000	     -0.00000000	     -0.00000000	     -0.00000000	     -0.00000000	     -0.00000000	      0.00000000	      1.04719755	      0.00000000	      0.00000000	      0.00000000	      0.00000000	      0.00000000	      0.00000000	      0.00000000	      0.00000000	      0.00000000	     -0.00000000	     -0.00000000	      1.04719755	      0.00000000	      0.00000000	      0.00000000
      1.28000000	      0.00000000	      0.00000000	     -0.00000000	     -0.00000000	      0.00000000	      0.00000000	     -0.00000000	     -0.00000000	      0.96900000	     -0.00000000	     -0.00000000	     -0.00000000	     -0.00000000	     -0.00000000	      0.00000000	      0.00000000	     -0.00000000	     -0.00000000	      0.42911938	      0.73647815	      0.05500209	      0.07224374	      0.01059201	     -0.10270105	      0.04126894	     -0.01987793	     -0.02134552	     -0.01548537	      0.00597295	     -0.00081916	      0.64457507	      0.62577452	      0.05871824	      0.06711524	      0.01819629	     -0.11543790	      0.00011686	      0.00086690	      0.00159119	      0.00012202	     -0.00069266	      0.00125101	      0.00000000	      0.00000000	     -0.00000000	     -0.00000000	      0.00000000	     -0.00000000	     -0.00000000	     -0.00000000	      0.00000000	      0.00000000	     -0.00000000	     -0.00000000	      0.00113686	      0.00000000	      0.04435000	     -0.00000000	     -0.41871200	      0.00000000	      0.00000000	     -0.00000000	      0.00000000	      0.00000000	      0.00000000	      0.00000000	     -0.00000000	     -0.00000000	     -0.00000000	     -0.00000000	      0.00000000	      0.00000000	      0.00000000	      0.00000000	     -0.00000000	     -0.00000000	     -0.00000000	     -0.00000000	     -0.00000000	     -0.00000000	     -0.00000000	     -0.00000000	     -0.00000000	     -0.00000000	     -0.00000000	     -0.00000000	     -0.00000000	      0.00000000	      1.04719755	      0.00000000	      0.00000000	      0.00000000	      0.00000000	      0.00000000	      0.00000000	      0.00000000	      0.00000000	      0.00000000	     -0.00000000	     -0.00000000	      1.04719755	      0.00000000	      0.00000000	      0.00000000
      1.29000000	      0.00000000	      0.00000000	     -0.00000000	     -0.00000000	      0.00000000	      0.00000000	     -0.00000000	     -0.00000000	      0.96900000	     -0.00000000	     -0.00000000	     -0.00000000	     -0.00000000	     -0.00000000	      0.00000000	      0.00000000	     -0.00000000	     -0.00000000	      0.43642735	      0.72395566	      0.05569990	      0.06719876	      0.00957072	     -0.10130528	      0.04107705	     -0.01855199	     -0.02149213	     -0.01387495	      0.00596613	     -0.00053727	      0.65063234	      0.58566285	      0.05937338	      0.06380991	      0.01703614	     -0.11645306	      0.00012618	      0.00103086	      0.00159157	     -0.00003598	     -0.00067962	      0.00131368	      0.00000000	      0.00000000	     -0.00000000	     -0.00000000	      0.00000000	     -0.00000000	     -0.00000000	     -0.00000000	      0.00000000	      0.00000000	     -0.00000000	     -0.00000000	      0.00113686	      0.00000000	      0.04435000	     -0.00000000	     -0.41871200	      0.00000000	      0.00000000	     -0.00000000	      0.00000000	      0.00000000	      0.00000000	      0.00000000	     -0.00000000	     -0.00000000	     -0.00000000	     -0.00000000	      0.00000000	      0.00000000	      0.00000000	      0.00000000	     -0.00000000	     -0.00000000	     -0.00000000	     -0.00000000	     -0.00000000	     -0.00000000	     -0.00000000	     -0.00000000	     -0.00000000	     -0.00000000	     -0.00000000	     -0.00000000	     -0.00000000	      0.00000000	      1.04719755	      0.00000000	      0.00000000	      0.00000000	      0.00000000	      0.00000000	      0.00000000	      0.00000000	      0.00000000	      0.00000000	     -0.00000000	     -0.00000000	      1.04719755	      0.00000000	      0.00000000	      0.00000000
      1.30000000	      0.00000000	      0.00000000	     -0.00000000	     -0.00000000	      0.00000000	      0.00000000	     -0.00000000	     -0.00000000	      0.96900000	     -0.00000000	     -0.00000000	     -0.00000000	     -0.00000000	     -0.00000000	      0.00000000	      0.00000000	     -0.00000000	     -0.00000000	      0.44359390	      0.70880376	      0.05634446	      0.06185612	      0.00857047	     -0.09858690	      0.04089716	     -0.01738907	     -0.02162312	     -0.01232968	      0.00596098	     -0.00059052	      0.65628828	      0.54553348	      0.05999441	      0.06045601	      0.01586714	     -0.11738353	      0.00013671	      0.00102961	      0.00159035	     -0.00016700	     -0.00066665	      0.00129633	      0.00000000	      0.00000000	     -0.00000000	     -0.00000000	      0.00000000	     -0.00000000	     -0.00000000	     -0.00000000	      0.00000000	      0.00000000	     -0.00000000	     -0.00000000	      0.00113686	      0.00000000	      0.04435000	     -0.00000000	     -0.41871200	      0.00000000	      0.00000000	     -0.00000000	      0.00000000	      0.00000000	      0.00000000	      0.00000000	     -0.00000000	     -0.00000000	     -0.00000000	     -0.00000000	      0.00000000	      0.00000000	      0.00000000	      0.00000000	     -0.00000000	     -0.00000000	     -0.00000000	     -0.00000000	     -0.00000000	     -0.00000000	     -0.00000000	     -0.00000000	     -0.00000000	     -0.00000000	     -0.00000000	     -0.00000000	     -0.00000000	      0.00000000	      1.04719755	      0.00000000	      0.00000000	      0.00000000	      0.00000000	      0.00000000	      0.00000000	      0.00000000	      0.00000000	      0.00000000	     -0.00000000	     -0.00000000	      1.04719755	      0.00000000	      0.00000000	      0.00000000
